[img]http://img819.imageshack.us/img819/5742/paraj.jpg[/img]
[code]
Paranormal Activity 3 2011 720p TS XviD 5.1 AC3 - MiSTERE
 
http://www.imdb.com/title/tt1778304/

Video
ID                               : 0
Format                           : MPEG-4 Visual
Format profile                   : Advanced Simple@L5
Format settings, BVOP            : 2
Format settings, QPel            : No
Format settings, GMC             : No warppoints
Format settings, Matrix          : Default (H.263)
Muxing mode                      : Packed bitstream
Codec ID                         : XVID
Codec ID/Hint                    : XviD
Duration                         : 1h 18mn
Bit rate                         : 3 407 Kbps
Width                            : 1 280 pixels
Height                           : 608 pixels
Display aspect ratio             : 2.2:1
Frame rate                       : 25.000 fps
Color space                      : YUV
Chroma subsampling               : 4:2:0
Bit depth                        : 8 bits
Scan type                        : Progressive
Compression mode                 : Lossy
Bits/(Pixel*Frame)               : 0.175
Stream size                      : 1.87 GiB (88%)
Writing library                  : XviD 64

Audio
ID                               : 1
Format                           : AC-3
Format/Info                      : Audio Coding 3
Mode extension                   : CM (complete main)
Codec ID                         : 2000
Duration                         : 1h 18mn
Bit rate mode                    : Constant
Bit rate                         : 448 Kbps
Channel(s)                       : 6 channels
Channel positions                : Front: L C R, Side: L R, LFE
Sampling rate                    : 48.0 KHz
Bit depth                        : 16 bits
Compression mode                 : Lossy
Stream size                      : 252 MiB (12%)
Alignment                        : Aligned on interleaves
Interleave, duration             : 40 ms (1.00 video frame)

Plot:
In 1988, young sisters Katie and Kristi befriend an invisible entity who resides in their home.

Thanks to TNZ for the source files
Sharpened and tweaked RGB
Overall not a bad video, much better
than V1
[/code]
Screens:
[img]http://img155.imageshack.us/img155/6227/87408856.png[/img]
[img]http://img263.imageshack.us/img263/7871/71887106.png[/img]
[img]http://img41.imageshack.us/img41/8003/72616788.jpg[/img]
[img]http://img3.imageshack.us/img3/9131/50329863.png[/img]